<svg width="32" height="32" viewBox="0 0 32 32" fill="none" xmlns="http://www.w3.org/2000/svg">
<path fill-rule="evenodd" clip-rule="evenodd" d="M5.5 1.125C5.5 0.892936 5.59219 0.670376 5.75628 0.506282C5.92038 0.342187 6.14294 0.25 6.375 0.25H25.625C25.8571 0.25 26.0796 0.342187 26.2437 0.506282C26.4078 0.670376 26.5 0.892936 26.5 1.125V2H30.875C31.1071 2 31.3296 2.09219 31.4937 2.25628C31.6578 2.42038 31.75 2.64294 31.75 2.875V8.125C31.75 9.28532 31.2891 10.3981 30.4686 11.2186C29.6481 12.0391 28.5353 12.5 27.375 12.5H25.9024C24.554 16.315 21.0636 19.1185 16.875 19.4641V24.75H23C23.2321 24.75 23.4546 24.8422 23.6187 25.0063C23.7828 25.1704 23.875 25.3929 23.875 25.625V30.875C23.875 31.1071 23.7828 31.3296 23.6187 31.4937C23.4546 31.6578 23.2321 31.75 23 31.75H9C8.76794 31.75 8.54538 31.6578 8.38128 31.4937C8.21719 31.3296 8.125 31.1071 8.125 30.875V25.625C8.125 25.3929 8.21719 25.1704 8.38128 25.0063C8.54538 24.8422 8.76794 24.75 9 24.75H15.125V19.4641C10.9373 19.1185 7.446 16.315 6.09762 12.5H4.625C3.46468 12.5 2.35188 12.0391 1.53141 11.2186C0.710936 10.3981 0.25 9.28532 0.25 8.125V2.875C0.25 2.64294 0.342187 2.42038 0.506282 2.25628C0.670376 2.09219 0.892936 2 1.125 2H5.5V1.125ZM24.75 9V2H7.25V9C7.25 13.8326 11.1674 17.75 16 17.75C20.8326 17.75 24.75 13.8326 24.75 9ZM26.5 3.75V10.75H27.375C28.0712 10.75 28.7389 10.4734 29.2312 9.98116C29.7234 9.48887 30 8.82119 30 8.125V3.75H26.5ZM2 3.75H5.5V10.75H4.625C3.92881 10.75 3.26113 10.4734 2.76884 9.98116C2.27656 9.48887 2 8.82119 2 8.125V3.75ZM9.875 26.5V30H22.125V26.5H9.875Z" fill="white"/>
</svg>
