<svg width="24" height="24" viewBox="0 0 24 24" fill="none" xmlns="http://www.w3.org/2000/svg">
<path d="M20.1673 2.33333H19.0007C18.3563 2.33333 17.834 1.811 17.834 1.16667V1.16667C17.834 0.857247 17.7111 0.560501 17.4923 0.341709C17.2735 0.122916 16.9767 0 16.6673 0C16.3579 0 16.0612 0.122916 15.8424 0.341709C15.6236 0.560501 15.5007 0.857247 15.5007 1.16667V1.16667C15.5007 1.811 14.9783 2.33333 14.334 2.33333H9.66732C9.02299 2.33333 8.50065 1.811 8.50065 1.16667V1.16667C8.50065 0.857247 8.37773 0.560501 8.15894 0.341709C7.94015 0.122916 7.6434 0 7.33398 0C7.02457 0 6.72782 0.122916 6.50903 0.341709C6.29023 0.560501 6.16732 0.857247 6.16732 1.16667V1.16667C6.16732 1.811 5.64498 2.33333 5.00065 2.33333H3.83398C2.90573 2.33333 2.01549 2.70208 1.35911 3.35846C0.702733 4.01484 0.333984 4.90508 0.333984 5.83333V19.8333C0.333984 20.7616 0.702733 21.6518 1.35911 22.3082C2.01549 22.9646 2.90573 23.3333 3.83398 23.3333H20.1673C21.0956 23.3333 21.9858 22.9646 22.6422 22.3082C23.2986 21.6518 23.6673 20.7616 23.6673 19.8333V5.83333C23.6673 4.90508 23.2986 4.01484 22.6422 3.35846C21.9858 2.70208 21.0956 2.33333 20.1673 2.33333ZM21.334 19.8333C21.334 20.1428 21.2111 20.4395 20.9923 20.6583C20.7735 20.8771 20.4767 21 20.1673 21H3.83398C3.52457 21 3.22782 20.8771 3.00903 20.6583C2.79023 20.4395 2.66732 20.1428 2.66732 19.8333V19.8333C2.66732 15.323 6.32366 11.6667 10.834 11.6667H13.1673C17.6776 11.6667 21.334 15.323 21.334 19.8333V19.8333ZM21.334 5.83333C21.334 7.76633 19.767 9.33333 17.834 9.33333H6.16732C4.23432 9.33333 2.66732 7.76633 2.66732 5.83333V5.83333C2.66732 5.52391 2.79023 5.22717 3.00903 5.00838C3.22782 4.78958 3.52457 4.66667 3.83398 4.66667H5.00065C5.64498 4.66667 6.16732 5.189 6.16732 5.83333V5.83333C6.16732 6.14275 6.29023 6.4395 6.50903 6.65829C6.72782 6.87708 7.02457 7 7.33398 7C7.6434 7 7.94015 6.87708 8.15894 6.65829C8.37773 6.4395 8.50065 6.14275 8.50065 5.83333V5.83333C8.50065 5.189 9.02299 4.66667 9.66732 4.66667H14.334C14.9783 4.66667 15.5007 5.189 15.5007 5.83333V5.83333C15.5007 6.14275 15.6236 6.4395 15.8424 6.65829C16.0612 6.87708 16.3579 7 16.6673 7C16.9767 7 17.2735 6.87708 17.4923 6.65829C17.7111 6.4395 17.834 6.14275 17.834 5.83333V5.83333C17.834 5.189 18.3563 4.66667 19.0007 4.66667H20.1673C20.4767 4.66667 20.7735 4.78958 20.9923 5.00838C21.2111 5.22717 21.334 5.52391 21.334 5.83333V5.83333Z" fill="white"/>
</svg>
