<svg width="23" height="29" viewBox="0 0 23 29" fill="none" xmlns="http://www.w3.org/2000/svg">
<path d="M11.5 15.791C13.6401 15.791 15.375 14.0561 15.375 11.916C15.375 9.77591 13.6401 8.04102 11.5 8.04102C9.3599 8.04102 7.625 9.77591 7.625 11.916C7.625 14.0561 9.3599 15.791 11.5 15.791Z" stroke="white" stroke-width="2" stroke-linecap="round" stroke-linejoin="round"/>
<path d="M11.4993 1.58301C8.75878 1.58301 6.13045 2.6717 4.19258 4.60957C2.2547 6.54745 1.16602 9.17577 1.16602 11.9163C1.16602 14.3602 1.68527 15.9593 3.10352 17.7288L11.4993 27.4163L19.8952 17.7288C21.3134 15.9593 21.8327 14.3602 21.8327 11.9163C21.8327 9.17577 20.744 6.54745 18.8061 4.60957C16.8682 2.6717 14.2399 1.58301 11.4993 1.58301V1.58301Z" stroke="white" stroke-width="2" stroke-linecap="round" stroke-linejoin="round"/>
</svg>
