<svg width="35" height="29" viewBox="0 0 35 29" fill="none" xmlns="http://www.w3.org/2000/svg">
<path d="M25.375 27.5H33.5V24.25C33.4999 23.2369 33.1842 22.2489 32.5967 21.4235C32.0092 20.5981 31.1792 19.9762 30.222 19.6443C29.2647 19.3125 28.2279 19.2871 27.2555 19.5717C26.2832 19.8563 25.4237 20.4367 24.7965 21.2324L25.375 27.5ZM25.375 27.5H9.125H25.375ZM25.375 27.5V24.25C25.375 23.184 25.1702 22.1651 24.7965 21.2324L25.375 27.5ZM9.125 27.5H1V24.25C1.00007 23.2369 1.3158 22.2489 1.90327 21.4235C2.49075 20.5981 3.3208 19.9762 4.27803 19.6443C5.23526 19.3125 6.27211 19.2871 7.24445 19.5717C8.21679 19.8563 9.0763 20.4367 9.7035 21.2324L9.125 27.5ZM9.125 27.5V24.25C9.125 23.184 9.32975 22.1651 9.7035 21.2324L9.125 27.5ZM9.7035 21.2324C10.307 19.7243 11.3484 18.4316 12.6935 17.5211C14.0386 16.6105 15.6257 16.1239 17.25 16.1239C18.8743 16.1239 20.4614 16.6105 21.8065 17.5211C23.1516 18.4316 24.193 19.7243 24.7965 21.2324H9.7035ZM22.125 6.375C22.125 7.66793 21.6114 8.90791 20.6971 9.82215C19.7829 10.7364 18.5429 11.25 17.25 11.25C15.9571 11.25 14.7171 10.7364 13.8029 9.82215C12.8886 8.90791 12.375 7.66793 12.375 6.375C12.375 5.08207 12.8886 3.84209 13.8029 2.92785C14.7171 2.01361 15.9571 1.5 17.25 1.5C18.5429 1.5 19.7829 2.01361 20.6971 2.92785C21.6114 3.84209 22.125 5.08207 22.125 6.375V6.375ZM31.875 11.25C31.875 12.112 31.5326 12.9386 30.9231 13.5481C30.3136 14.1576 29.487 14.5 28.625 14.5C27.763 14.5 26.9364 14.1576 26.3269 13.5481C25.7174 12.9386 25.375 12.112 25.375 11.25C25.375 10.388 25.7174 9.5614 26.3269 8.9519C26.9364 8.34241 27.763 8 28.625 8C29.487 8 30.3136 8.34241 30.9231 8.9519C31.5326 9.5614 31.875 10.388 31.875 11.25ZM9.125 11.25C9.125 12.112 8.78259 12.9386 8.1731 13.5481C7.5636 14.1576 6.73695 14.5 5.875 14.5C5.01305 14.5 4.1864 14.1576 3.5769 13.5481C2.96741 12.9386 2.625 12.112 2.625 11.25C2.625 10.388 2.96741 9.5614 3.5769 8.9519C4.1864 8.34241 5.01305 8 5.875 8C6.73695 8 7.5636 8.34241 8.1731 8.9519C8.78259 9.5614 9.125 10.388 9.125 11.25Z" stroke="white" stroke-width="2" stroke-linecap="round" stroke-linejoin="round"/>
</svg>
