<svg width="34" height="24" viewBox="0 0 34 24" fill="none" xmlns="http://www.w3.org/2000/svg">
<path d="M27.6875 12V10.8125C27.6875 7.978 26.5615 5.25959 24.5572 3.2553C22.5529 1.251 19.8345 0.125 17 0.125C14.1655 0.125 11.4471 1.251 9.4428 3.2553C7.4385 5.25959 6.3125 7.978 6.3125 10.8125V12C4.73778 12 3.22755 12.6256 2.11405 13.7391C1.00056 14.8526 0.375 16.3628 0.375 17.9375C0.375 19.5122 1.00056 21.0224 2.11405 22.1359C3.22755 23.2494 4.73778 23.875 6.3125 23.875H8.6875V10.8125C8.6875 8.60789 9.56328 6.49357 11.1222 4.93468C12.6811 3.37578 14.7954 2.5 17 2.5C19.2046 2.5 21.3189 3.37578 22.8778 4.93468C24.4367 6.49357 25.3125 8.60789 25.3125 10.8125V23.875H27.6875C29.2622 23.875 30.7724 23.2494 31.8859 22.1359C32.9994 21.0224 33.625 19.5122 33.625 17.9375C33.625 16.3628 32.9994 14.8526 31.8859 13.7391C30.7724 12.6256 29.2622 12 27.6875 12ZM2.75 17.9375C2.75 16.9927 3.12533 16.0865 3.79343 15.4184C4.46153 14.7503 5.36767 14.375 6.3125 14.375V21.5C5.36767 21.5 4.46153 21.1247 3.79343 20.4566C3.12533 19.7885 2.75 18.8823 2.75 17.9375ZM27.6875 21.5V14.375C28.6323 14.375 29.5385 14.7503 30.2066 15.4184C30.8747 16.0865 31.25 16.9927 31.25 17.9375C31.25 18.8823 30.8747 19.7885 30.2066 20.4566C29.5385 21.1247 28.6323 21.5 27.6875 21.5Z" fill="white"/>
</svg>
