<svg width="23" height="23" viewBox="0 0 23 23" fill="none" xmlns="http://www.w3.org/2000/svg">
<path d="M11.7987 -0.0239258C5.61002 -0.0239258 0.574219 5.01047 0.574219 11.1999C0.574219 17.3893 5.61002 22.4237 11.7987 22.4237C17.9874 22.4237 23.0232 17.3893 23.0232 11.1999C23.0232 5.01047 17.9874 -0.0239258 11.7987 -0.0239258ZM11.7987 21.6761C6.02232 21.6761 1.32322 16.9763 1.32322 11.1999C1.32322 5.42347 6.02232 0.723674 11.7987 0.723674C17.5751 0.723674 22.2742 5.42347 22.2742 11.1999C22.2742 16.9763 17.5751 21.6761 11.7987 21.6761Z" fill="white"/>
<path d="M17.9549 7.73198C18.0325 7.58825 18.0965 7.43756 18.146 7.28188C18.1689 7.20966 18.1694 7.1322 18.1473 7.05972C18.1253 6.98724 18.0818 6.92314 18.0226 6.8759C17.9633 6.82866 17.8912 6.80049 17.8156 6.79511C17.74 6.78973 17.6646 6.8074 17.5993 6.84578C17.2406 7.05886 16.8523 7.21762 16.4471 7.31688C15.9552 6.87292 15.3163 6.6268 14.6537 6.62598C14.2937 6.62625 13.9375 6.69922 13.6064 6.8405C13.2752 6.98178 12.9761 7.18847 12.7268 7.44817C12.4774 7.70787 12.2831 8.01523 12.1555 8.35184C12.0279 8.68845 11.9695 9.04737 11.9839 9.40708C10.4096 9.20889 8.97204 8.41227 7.96941 7.18248C7.93099 7.13589 7.8819 7.09926 7.8263 7.0757C7.7707 7.05214 7.71023 7.04235 7.65004 7.04716C7.58984 7.05197 7.5317 7.07124 7.48054 7.10333C7.42939 7.13542 7.38674 7.17938 7.35621 7.23148C7.12662 7.62553 7.00184 8.07183 6.99375 8.52781C6.98566 8.98379 7.09454 9.43423 7.31001 9.83618C7.25716 9.84509 7.20639 9.8636 7.16021 9.89078C7.10361 9.92687 7.05701 9.97663 7.02471 10.0355C6.99242 10.0943 6.97546 10.1604 6.97541 10.2275C6.97541 11.022 7.32891 11.7514 7.89871 12.247L7.87421 12.2715C7.83119 12.3201 7.80159 12.3792 7.78834 12.4428C7.77508 12.5063 7.77862 12.5723 7.79861 12.6341C7.91742 13.0047 8.11581 13.345 8.37989 13.6309C8.64397 13.9169 8.96735 14.1417 9.32741 14.2896C8.58792 14.6503 7.76036 14.791 6.94321 14.6949C6.85921 14.6863 6.77475 14.7059 6.70305 14.7504C6.63135 14.795 6.57647 14.8622 6.54701 14.9413C6.51871 15.021 6.51818 15.1079 6.5455 15.188C6.57282 15.268 6.62638 15.3365 6.69751 15.3823C7.80841 16.0953 9.10078 16.4741 10.4208 16.4736C14.7468 16.4736 17.3326 12.9596 17.3326 9.56248L17.3319 9.44768C17.7512 9.12037 18.1153 8.72807 18.4106 8.28568C18.4553 8.2188 18.4773 8.1393 18.4733 8.05895C18.4693 7.97859 18.4396 7.90166 18.3884 7.83955C18.3373 7.77743 18.2675 7.73343 18.1895 7.71405C18.1114 7.69468 18.0291 7.70096 17.9549 7.73198ZM16.7334 8.96048C16.6826 8.997 16.6418 9.04567 16.6146 9.10204C16.5875 9.15841 16.5749 9.22069 16.578 9.28318C16.5822 9.37558 16.5843 9.46938 16.5843 9.56178C16.5843 12.5914 14.2792 15.7253 10.4215 15.7253C9.73348 15.7256 9.05031 15.6101 8.40061 15.3837C9.17872 15.2346 9.90969 14.9009 10.5321 14.4107C10.5927 14.3629 10.637 14.2976 10.6591 14.2236C10.6812 14.1497 10.6798 14.0708 10.6553 13.9976C10.6308 13.9244 10.5843 13.8606 10.5222 13.8149C10.46 13.7692 10.3852 13.7438 10.3081 13.7422C10.0063 13.7364 9.71004 13.6598 9.44327 13.5185C9.1765 13.3772 8.94666 13.1752 8.77231 12.9288C8.94941 12.9169 9.12301 12.8875 9.29171 12.842C9.37335 12.8201 9.44518 12.7712 9.49548 12.7033C9.54577 12.6354 9.57156 12.5524 9.56864 12.468C9.56572 12.3835 9.53425 12.3025 9.47938 12.2382C9.42451 12.1739 9.34947 12.1301 9.26651 12.114C8.92562 12.0446 8.61 11.8839 8.35342 11.649C8.09683 11.4141 7.90892 11.1139 7.80981 10.7805C7.99601 10.8274 8.18711 10.8547 8.37821 10.861C8.54271 10.8603 8.69531 10.7595 8.74641 10.6013C8.79751 10.4431 8.73731 10.2688 8.59801 10.1764C8.26864 9.95693 8.01504 9.64116 7.87183 9.2722C7.72863 8.90324 7.70282 8.49906 7.79791 8.11488C9.01383 9.3625 10.6557 10.1054 12.3955 10.1953C12.5187 10.196 12.6265 10.1519 12.7014 10.0616C12.7763 9.97128 12.805 9.85158 12.7784 9.73678C12.6827 9.32448 12.7255 8.89212 12.9002 8.5066C13.075 8.12109 13.3719 7.80393 13.7451 7.60419C14.1183 7.40445 14.5469 7.33327 14.9646 7.40167C15.3823 7.47007 15.7658 7.67424 16.0558 7.98258C16.0993 8.02895 16.1538 8.06349 16.2143 8.08296C16.2748 8.10243 16.3393 8.10619 16.4016 8.09388C16.5171 8.07078 16.6312 8.04418 16.7439 8.01338C16.6931 8.05141 16.6403 8.08669 16.5857 8.11908C16.5131 8.16354 16.4578 8.23141 16.429 8.31149C16.4001 8.39158 16.3994 8.47911 16.427 8.55965C16.4545 8.64019 16.5087 8.70894 16.5806 8.75457C16.6524 8.8002 16.7377 8.81999 16.8223 8.81068L16.9497 8.79458C16.8795 8.85237 16.8074 8.9077 16.7334 8.96048Z" fill="white"/>
</svg>
