<svg width="79" height="79" viewBox="0 0 79 79" fill="none" xmlns="http://www.w3.org/2000/svg">
<circle cx="39.5" cy="39.5" r="38.5" fill="white" stroke="#2C49FE" stroke-width="2"/>
<path d="M22.1992 28.2002C22.1992 26.6089 22.8314 25.0828 23.9566 23.9576C25.0818 22.8323 26.6079 22.2002 28.1992 22.2002H40.1992C41.7905 22.2002 43.3166 22.8323 44.4419 23.9576C45.5671 25.0828 46.1992 26.6089 46.1992 28.2002C46.1992 28.5185 46.0728 28.8237 45.8477 29.0487C45.6227 29.2738 45.3175 29.4002 44.9992 29.4002C44.681 29.4002 44.3757 29.2738 44.1507 29.0487C43.9256 28.8237 43.7992 28.5185 43.7992 28.2002C43.7992 27.2454 43.4199 26.3297 42.7448 25.6546C42.0697 24.9795 41.154 24.6002 40.1992 24.6002H28.1992C27.2444 24.6002 26.3288 24.9795 25.6536 25.6546C24.9785 26.3297 24.5992 27.2454 24.5992 28.2002V40.2002C24.5992 41.155 24.9785 42.0707 25.6536 42.7458C26.3288 43.4209 27.2444 43.8002 28.1992 43.8002H39.0328C39.1812 42.4816 39.8099 41.2638 40.7989 40.3791C41.788 39.4945 43.0681 39.005 44.395 39.0041C45.722 39.0031 47.0028 39.4907 47.9931 40.3739C48.9834 41.2571 49.6139 42.474 49.7642 43.7924C49.9145 45.1108 49.5741 46.4384 48.808 47.5218C48.0419 48.6052 46.9036 49.3687 45.6105 49.6664C44.3174 49.9641 42.96 49.7753 41.7972 49.136C40.6344 48.4966 39.7478 47.4516 39.3064 46.2002H28.1992C26.6079 46.2002 25.0818 45.5681 23.9566 44.4428C22.8314 43.3176 22.1992 41.7915 22.1992 40.2002V28.2002ZM32.9992 48.6002C32.681 48.6002 32.3757 48.7266 32.1507 48.9517C31.9256 49.1767 31.7992 49.4819 31.7992 49.8002C31.7992 51.3915 32.4314 52.9176 33.5566 54.0428C34.6818 55.1681 36.2079 55.8002 37.7992 55.8002H49.7992C51.3905 55.8002 52.9166 55.1681 54.0419 54.0428C55.1671 52.9176 55.7992 51.3915 55.7992 49.8002V37.8002C55.7992 36.2089 55.1671 34.6828 54.0419 33.5576C52.9166 32.4323 51.3905 31.8002 49.7992 31.8002H38.692C38.2507 30.5488 37.364 29.5037 36.2012 28.8644C35.0385 28.2251 33.681 28.0363 32.3879 28.334C31.0948 28.6317 29.9566 29.3952 29.1905 30.4786C28.4243 31.562 28.0839 32.8896 28.2342 34.208C28.3845 35.5264 29.015 36.7433 30.0053 37.6265C30.9956 38.5097 32.2765 38.9973 33.6034 38.9963C34.9303 38.9954 36.2105 38.5059 37.1995 37.6212C38.1885 36.7366 38.8172 35.5188 38.9656 34.2002H49.7992C50.754 34.2002 51.6697 34.5795 52.3448 35.2546C53.0199 35.9297 53.3992 36.8454 53.3992 37.8002V49.8002C53.3992 50.755 53.0199 51.6707 52.3448 52.3458C51.6697 53.0209 50.754 53.4002 49.7992 53.4002H37.7992C36.8444 53.4002 35.9288 53.0209 35.2536 52.3458C34.5785 51.6707 34.1992 50.755 34.1992 49.8002C34.1992 49.4819 34.0728 49.1767 33.8477 48.9517C33.6227 48.7266 33.3175 48.6002 32.9992 48.6002Z" fill="#2C49FE"/>
</svg>
