<svg width="79" height="79" viewBox="0 0 79 79" fill="none" xmlns="http://www.w3.org/2000/svg">
<circle cx="39.5" cy="39.5" r="38.5" fill="white" stroke="#2C49FE" stroke-width="2"/>
<g clip-path="url(#clip0_4504_803)">
<path d="M51.6465 32.875H45.0215C44.1432 32.8759 43.3012 33.2252 42.6802 33.8462C42.0591 34.4672 41.7099 35.3092 41.709 36.1875V42.8125C41.7096 43.398 41.9424 43.9594 42.3564 44.3734C42.7705 44.7874 43.3318 45.0202 43.9173 45.0208V52.75C43.9179 53.3355 44.1508 53.8969 44.5648 54.3109C44.9788 54.7249 45.5401 54.9578 46.1257 54.9583H50.5423C51.1278 54.9578 51.6892 54.7249 52.1032 54.3109C52.5172 53.8969 52.7501 53.3355 52.7507 52.75V45.0208C53.3362 45.0202 53.8975 44.7874 54.3115 44.3734C54.7255 43.9594 54.9584 43.398 54.959 42.8125V36.1875C54.9581 35.3092 54.6088 34.4672 53.9878 33.8462C53.3668 33.2252 52.5247 32.8759 51.6465 32.875ZM52.7507 42.8125H50.5423V52.75H46.1257V42.8125H43.9173V36.1875C43.9173 35.8947 44.0336 35.6138 44.2407 35.4067C44.4478 35.1997 44.7286 35.0833 45.0215 35.0833H51.6465C51.9393 35.0833 52.2202 35.1997 52.4272 35.4067C52.6343 35.6138 52.7507 35.8947 52.7507 36.1875V42.8125Z" fill="#2C49FE"/>
<path d="M43.918 27.3542C43.918 26.4806 44.177 25.6267 44.6623 24.9004C45.1476 24.1741 45.8374 23.608 46.6445 23.2737C47.4515 22.9394 48.3395 22.8519 49.1963 23.0224C50.053 23.1928 50.84 23.6134 51.4577 24.2311C52.0754 24.8488 52.496 25.6358 52.6664 26.4925C52.8369 27.3493 52.7494 28.2373 52.4151 29.0444C52.0808 29.8514 51.5147 30.5412 50.7884 31.0265C50.0621 31.5118 49.2082 31.7708 48.3346 31.7708C47.1636 31.7697 46.0409 31.304 45.2129 30.4759C44.3848 29.6479 43.9191 28.5252 43.918 27.3542ZM46.1263 27.3542C46.1263 27.7909 46.2558 28.2179 46.4985 28.5811C46.7411 28.9442 47.086 29.2273 47.4895 29.3944C47.8931 29.5615 48.3371 29.6053 48.7655 29.5201C49.1938 29.4349 49.5873 29.2245 49.8962 28.9157C50.205 28.6069 50.4153 28.2134 50.5005 27.785C50.5857 27.3566 50.542 26.9126 50.3749 26.5091C50.2077 26.1056 49.9247 25.7607 49.5615 25.518C49.1984 25.2754 48.7714 25.1458 48.3346 25.1458C47.7491 25.1464 47.1878 25.3793 46.7738 25.7933C46.3597 26.2073 46.1269 26.7687 46.1263 27.3542Z" fill="#2C49FE"/>
<path d="M37.2923 39.5V36.1875C37.2914 35.3092 36.9422 34.4672 36.3211 33.8462C35.7001 33.2252 34.8581 32.8759 33.9798 32.875H27.3548C26.4766 32.8759 25.6345 33.2252 25.0135 33.8462C24.3925 34.4672 24.0432 35.3092 24.0423 36.1875V39.5H21.834V41.7083H39.5007V39.5H37.2923ZM26.2507 36.1875C26.2507 35.8947 26.367 35.6138 26.5741 35.4067C26.7811 35.1997 27.062 35.0833 27.3548 35.0833H33.9798C34.2727 35.0833 34.5535 35.1997 34.7606 35.4067C34.9677 35.6138 35.084 35.8947 35.084 36.1875V39.5H26.2507V36.1875Z" fill="#2C49FE"/>
<path d="M26.25 27.3542C26.25 26.4806 26.509 25.6267 26.9943 24.9004C27.4797 24.1741 28.1694 23.608 28.9765 23.2737C29.7835 22.9394 30.6716 22.8519 31.5283 23.0224C32.3851 23.1928 33.172 23.6134 33.7897 24.2311C34.4074 24.8488 34.8281 25.6358 34.9985 26.4925C35.1689 27.3493 35.0814 28.2373 34.7471 29.0444C34.4128 29.8514 33.8468 30.5412 33.1204 31.0265C32.3941 31.5118 31.5402 31.7708 30.6667 31.7708C29.4957 31.7697 28.3729 31.304 27.5449 30.4759C26.7169 29.6479 26.2512 28.5252 26.25 27.3542ZM28.4583 27.3542C28.4583 27.7909 28.5879 28.2179 28.8305 28.5811C29.0732 28.9442 29.4181 29.2273 29.8216 29.3944C30.2251 29.5615 30.6691 29.6053 31.0975 29.5201C31.5259 29.4349 31.9194 29.2245 32.2282 28.9157C32.537 28.6069 32.7474 28.2134 32.8326 27.785C32.9178 27.3566 32.874 26.9126 32.7069 26.5091C32.5398 26.1056 32.2567 25.7607 31.8936 25.518C31.5304 25.2754 31.1034 25.1458 30.6667 25.1458C30.0812 25.1464 29.5198 25.3793 29.1058 25.7933C28.6918 26.2073 28.4589 26.7687 28.4583 27.3542Z" fill="#2C49FE"/>
</g>
<defs>
<clipPath id="clip0_4504_803">
<rect width="35.3333" height="35.3333" fill="white" transform="translate(21.834 21.8335)"/>
</clipPath>
</defs>
</svg>
